{
  "accessors": [
    {
      "bufferView": 2,
      "componentType": 5126,
      "count": 134,
      "max": [
        0.10623397678136826,
        0.3962649703025818,
        0.3920256495475769
      ],
      "min": [
        -0.11583204567432404,
        -0.39680421352386475,
        -0.12649278342723846
      ],
      "type": "VEC3"
    },
    {
      "bufferView": 2,
      "byteOffset": 1608,
      "componentType": 5126,
      "count": 134,
      "max": [
        1.0,
        1.0,
        1.0
      ],
      "min": [
        -1.0,
        -1.0,
        -1.0
      ],
      "type": "VEC3"
    },
    {
      "bufferView": 1,
      "componentType": 5126,
      "count": 134,
      "max": [
        0.9903911352157593,
        0.9921829700469971
      ],
      "min": [
        0.013763904571533203,
        0.009140312671661377
      ],
      "type": "VEC2"
    },
    {
      "bufferView": 0,
      "componentType": 5125,
      "count": 222,
      "type": "SCALAR"
    },
    {
      "bufferView": 2,
      "byteOffset": 3216,
      "componentType": 5126,
      "count": 4,
      "max": [
        -0.004334479570388794,
        0.3760037422180176,
        0.37419918179512024
      ],
      "min": [
        -0.004334483295679092,
        -0.3768744468688965,
        0.02353234589099884
      ],
      "type": "VEC3"
    },
    {
      "bufferView": 2,
      "byteOffset": 3264,
      "componentType": 5126,
      "count": 4,
      "max": [
        1.0,
        -4.850465806782722e-09,
        0.0
      ],
      "min": [
        1.0,
        -4.850465806782722e-09,
        0.0
      ],
      "type": "VEC3"
    },
    {
      "bufferView": 1,
      "byteOffset": 1072,
      "componentType": 5126,
      "count": 4,
      "max": [
        0.99577796459198,
        0.6760863065719604
      ],
      "min": [
        0.7074044942855835,
        0.008397789672017097
      ],
      "type": "VEC2"
    },
    {
      "bufferView": 0,
      "byteOffset": 888,
      "componentType": 5125,
      "count": 6,
      "type": "SCALAR"
    },
    {
      "bufferView": 2,
      "byteOffset": 3312,
      "componentType": 5126,
      "count": 410,
      "max": [
        0.0028361864387989044,
        0.3897407650947571,
        0.02335425093770027
      ],
      "min": [
        0.0007886005332693458,
        0.3185347020626068,
        0.005606628488749266
      ],
      "type": "VEC3"
    },
    {
      "bufferView": 2,
      "byteOffset": 8232,
      "componentType": 5126,
      "count": 410,
      "max": [
        1.0,
        0.9999966621398926,
        0.9999988675117493
      ],
      "min": [
        -1.0,
        -0.9999967217445374,
        -0.999998927116394
      ],
      "type": "VEC3"
    },
    {
      "bufferView": 1,
      "byteOffset": 1104,
      "componentType": 5126,
      "count": 410,
      "max": [
        0.10546771436929703,
        0.996521532535553
      ],
      "min": [
        0.005166195333003998,
        0.7054451704025269
      ],
      "type": "VEC2"
    },
    {
      "bufferView": 0,
      "byteOffset": 912,
      "componentType": 5125,
      "count": 720,
      "type": "SCALAR"
    },
    {
      "bufferView": 2,
      "byteOffset": 13152,
      "componentType": 5126,
      "count": 20,
      "max": [
        0.0025413259863853455,
        0.38209304213523865,
        0.02335425093770027
      ],
      "min": [
        0.002333889016881585,
        0.32200920581817627,
        0.009666994214057922
      ],
      "type": "VEC3"
    },
    {
      "bufferView": 2,
      "byteOffset": 13392,
      "componentType": 5126,
      "count": 20,
      "max": [
        1.0,
        1.2746147248776651e-08,
        1.1176649650224135e-07
      ],
      "min": [
        1.0,
        -3.5692178101953687e-08,
        0.0
      ],
      "type": "VEC3"
    },
    {
      "bufferView": 1,
      "byteOffset": 4384,
      "componentType": 5126,
      "count": 20,
      "max": [
        0.115851029753685,
        0.9932972192764282
      ],
      "min": [
        0.06725147366523743,
        0.9355016350746155
      ],
      "type": "VEC2"
    },
    {
      "bufferView": 0,
      "byteOffset": 3792,
      "componentType": 5125,
      "count": 42,
      "type": "SCALAR"
    }
  ],
  "asset": {
    "extras": {
      "author": "AnnPiskacov (https://sketchfab.com/AndreaPiskacova)",
      "license": "CC-BY-4.0 (http://creativecommons.org/licenses/by/4.0/)",
      "source": "https://sketchfab.com/3d-models/pc-monitor-8a207ba273a548d68f7217d1ffe24a67",
      "title": "PC monitor"
    },
    "generator": "Sketchfab-15.12.0",
    "version": "2.0"
  },
  "bufferViews": [
    {
      "buffer": 0,
      "byteLength": 3960,
      "name": "floatBufferViews",
      "target": 34963
    },
    {
      "buffer": 0,
      "byteLength": 4544,
      "byteOffset": 3960,
      "byteStride": 8,
      "name": "floatBufferViews",
      "target": 34962
    },
    {
      "buffer": 0,
      "byteLength": 13632,
      "byteOffset": 8504,
      "byteStride": 12,
      "name": "floatBufferViews",
      "target": 34962
    }
  ],
  "buffers": [
    {
      "byteLength": 22136,
      "uri": "scene.bin"
    }
  ],
  "materials": [
    {
      "doubleSided": true,
      "name": "PC_BLACK",
      "pbrMetallicRoughness": {
        "baseColorFactor": [
          0.00962855,
          0.00962855,
          0.00962855,
          1.0
        ],
        "metallicFactor": 0.0,
        "roughnessFactor": 0.9978469907675245
      }
    },
    {
      "doubleSided": true,
      "name": "PC_monitor_light",
      "pbrMetallicRoughness": {
        "baseColorFactor": [
          0.8,
          0.8,
          0.8,
          1.0
        ],
        "metallicFactor": 0.0,
        "roughnessFactor": 0.8040408205773457
      }
    },
    {
      "doubleSided": true,
      "name": "PC_buttons_black",
      "pbrMetallicRoughness": {
        "baseColorFactor": [
          0.0,
          0.0,
          0.0,
          1.0
        ],
        "metallicFactor": 0.0
      }
    },
    {
      "doubleSided": true,
      "name": "PC_buttons_white",
      "pbrMetallicRoughness": {
        "baseColorFactor": [
          0.8,
          0.8,
          0.8,
          1.0
        ],
        "metallicFactor": 0.0,
        "roughnessFactor": 0.8040408205773457
      }
    }
  ],
  "meshes": [
    {
      "name": "PC_PC BLACK_0",
      "primitives": [
        {
          "attributes": {
            "NORMAL": 1,
            "POSITION": 0,
            "TEXCOORD_0": 2
          },
          "indices": 3,
          "material": 0,
          "mode": 4
        }
      ]
    },
    {
      "name": "PC_PC monitor light_0",
      "primitives": [
        {
          "attributes": {
            "NORMAL": 5,
            "POSITION": 4,
            "TEXCOORD_0": 6
          },
          "indices": 7,
          "material": 1,
          "mode": 4
        }
      ]
    },
    {
      "name": "PC_PC buttons black_0",
      "primitives": [
        {
          "attributes": {
            "NORMAL": 9,
            "POSITION": 8,
            "TEXCOORD_0": 10
          },
          "indices": 11,
          "material": 2,
          "mode": 4
        }
      ]
    },
    {
      "name": "PC_PC buttons white_0",
      "primitives": [
        {
          "attributes": {
            "NORMAL": 13,
            "POSITION": 12,
            "TEXCOORD_0": 14
          },
          "indices": 15,
          "material": 3,
          "mode": 4
        }
      ]
    }
  ],
  "nodes": [
    {
      "children": [
        1
      ],
      "matrix": [
        1.0,
        1.608122622957729e-16,
        1.6081226229577294e-16,
        0.0,
        1.6081226229577292e-16,
        -6.123232939436859e-17,
        -1.0,
        0.0,
        -1.6081226229577292e-16,
        1.0,
        -6.123232939436859e-17,
        0.0,
        0.0,
        0.0,
        0.0,
        1.0
      ],
      "name": "Sketchfab_model"
    },
    {
      "children": [
        2
      ],
      "matrix": [
        0.009999999776482582,
        0.0,
        0.0,
        0.0,
        0.0,
        0.0,
        0.009999999776482582,
        0.0,
        0.0,
        -0.009999999776482582,
        0.0,
        0.0,
        0.0,
        0.0,
        0.0,
        1.0
      ],
      "name": "152793fffe5f41ad8077efb4bd9323e0.fbx"
    },
    {
      "children": [
        3
      ],
      "name": "RootNode"
    },
    {
      "children": [
        4,
        5,
        6,
        7
      ],
      "matrix": [
        100.0,
        0.0,
        0.0,
        0.0,
        0.0,
        -1.629206793918314e-05,
        -99.99999999999868,
        0.0,
        0.0,
        99.99999999999868,
        -1.629206793918314e-05,
        0.0,
        2.8787665367126465,
        11.880672454833984,
        0.2591639757156372,
        1.0
      ],
      "name": "PC"
    },
    {
      "mesh": 0,
      "name": "PC_PC BLACK_0"
    },
    {
      "mesh": 1,
      "name": "PC_PC monitor light_0"
    },
    {
      "mesh": 2,
      "name": "PC_PC buttons black_0"
    },
    {
      "mesh": 3,
      "name": "PC_PC buttons white_0"
    }
  ],
  "scene": 0,
  "scenes": [
    {
      "name": "Sketchfab_Scene",
      "nodes": [
        0
      ]
    }
  ]
}
